<svg xmlns="http://www.w3.org/2000/svg" viewBox="0 0 1096.22 114.93"><defs><style>.cls-1{fill:#FFFFFF;}</style></defs><g id="图层_2" data-name="图层 2"><g id="图层_1-2" data-name="图层 1"><path class="cls-1" d="M395.53,113.65l1.05,1.17h-5.17l1-1.17-1.51-4.22h-5.3l-1.05,3,2.82,2.37h-5.21l2.19-2.35,3.71-10.94V99.29h2.33v0Zm-7.34-11.87-2.53,7.47h5.19Z"/><path class="cls-1" d="M414.12,113.47l1.2,1.35H410l1.2-1.35v-6.61a2,2,0,0,0-1.87-2,2.43,2.43,0,0,0-1.75.86v7.77l1.2,1.35h-5.28l1.2-1.35V106l-1.2-.8,4.08-1.51v1.71a5.12,5.12,0,0,1,3.55-1.78,3,3,0,0,1,2.95,3.17Z"/><path class="cls-1" d="M428.05,103.62a5.66,5.66,0,1,1-5.63,5.66A5.65,5.65,0,0,1,428.05,103.62Zm1.42,10.82c1.22,0,1.8-1.15,1.8-2.68,0-3.7-2.66-7.65-4.64-7.65-1.22,0-1.8,1.15-1.8,2.68C424.83,110.5,427.5,114.44,429.47,114.44Z"/><path class="cls-1" d="M446.77,114.76a2.3,2.3,0,0,1-.84.15c-2.79,0-4-1.62-4-4.35v-6.65h-1.38L444.8,101v2.71h1.95v.18H444.8v7.7c0,1.84.49,3.15,2,3.06Z"/><path class="cls-1" d="M464.41,113.47l1.2,1.35h-5.28l1.2-1.35v-6.61a2.08,2.08,0,0,0-1.91-2.16,2.47,2.47,0,0,0-1.75.89v7.88l1.19,1.35h-5.28l1.2-1.35v-9.39c0-2.73,1.35-4.63,3.77-4.63a2.58,2.58,0,0,1,2.89,2.53,2.36,2.36,0,0,1-1,1.75,4.06,4.06,0,0,1,.76-.07,3,3,0,0,1,3,3.17Zm-3-11.49a2,2,0,0,0-1.75-2.09c-1.25,0-1.84,1.51-1.84,3.11v2.41a6.67,6.67,0,0,1,2-1.44A2.17,2.17,0,0,0,461.46,102Z"/><path class="cls-1" d="M472.71,109.3a5.67,5.67,0,0,1,10.47-3h-4.31c3,.51,4.84,2.11,4.84,4.5,0,2.11-1.86,4.17-5.24,4.17A5.63,5.63,0,0,1,472.71,109.3Zm7.61,4.35a3.19,3.19,0,0,0,3.12-3.24c0-2.53-3-4.15-6.23-4.15h-2C474.88,109.83,477.12,113.65,480.32,113.65Zm-5.11-7.57h4.59a2.77,2.77,0,0,0-2.5-2.06C476.06,104,475.37,104.77,475.21,106.08Z"/><path class="cls-1" d="M498.48,106.59c-1.59.09-3.46.29-3.46,2.29v4.59l1.2,1.35h-5.28l1.2-1.35v-7.59l-1.2-.8,4.08-1.35v4c.58-2.86,1.53-4,4.33-4Z"/><path class="cls-1" d="M517.38,109.3a5.67,5.67,0,0,1,10.47-3h-4.3c3,.51,4.84,2.11,4.84,4.5,0,2.11-1.87,4.17-5.24,4.17A5.64,5.64,0,0,1,517.38,109.3Zm7.61,4.35a3.2,3.2,0,0,0,3.13-3.24c0-2.53-3-4.15-6.23-4.15h-2C519.56,109.83,521.8,113.65,525,113.65Zm-5.1-7.57h4.59A2.77,2.77,0,0,0,522,104C520.73,104,520,104.77,519.89,106.08Z"/><path class="cls-1" d="M546.2,113.47l1.2,1.35h-5.28l1.19-1.35v-6.61a2,2,0,0,0-1.86-2,2.43,2.43,0,0,0-1.75.86v7.77l1.2,1.35h-5.28l1.19-1.35V106l-1.19-.8,4.08-1.51v1.71a5.12,5.12,0,0,1,3.55-1.78,3,3,0,0,1,3,3.17Z"/><path class="cls-1" d="M559,103.62a4,4,0,0,1,3.15,1.44v-3.39l-1.2-.8L565,99.51v14l1.2,1.35h-4.08v-1.33a4,4,0,0,1-3.15,1.44c-2.49,0-4.51-2.55-4.51-5.65S556.51,103.62,559,103.62Zm1.15,10.8a2.76,2.76,0,0,0,2-1.26v-7.77a2.76,2.76,0,0,0-2-1.26c-1.71,0-2.75,2.82-2.75,5.15S558.44,114.42,560.15,114.42Z"/><path class="cls-1" d="M590,103.62a5.66,5.66,0,1,1-5.63,5.66A5.65,5.65,0,0,1,590,103.62Zm1.42,10.82c1.22,0,1.8-1.15,1.8-2.68,0-3.7-2.66-7.65-4.64-7.65-1.22,0-1.79,1.15-1.79,2.68C586.75,110.5,589.41,114.44,591.38,114.44Z"/><path class="cls-1" d="M603.83,113.47v-9.56h-1v-.18h1c.09-2.86,2.24-4.26,5.3-4.26a8.22,8.22,0,0,1,2.62.4l-2.49,1.88c-.66-1.37-1-1.86-1.59-1.86-1,0-1,1.15-1,2.11v1.73h4.4v.18h-4.4v9.56l1.2,1.35h-5.28Z"/><path class="cls-1" d="M639.94,99.29l1,4.62L637,99.47h-1.15v14l1.2,1.35h-5.28l1.19-1.35v-14h-1.15l-3.95,4.44.95-4.62Z"/><path class="cls-1" d="M645.4,109.3a5.67,5.67,0,0,1,10.47-3h-4.3c3,.51,4.83,2.11,4.83,4.5,0,2.11-1.86,4.17-5.23,4.17A5.64,5.64,0,0,1,645.4,109.3Zm7.61,4.35a3.2,3.2,0,0,0,3.13-3.24c0-2.53-3-4.15-6.24-4.15h-2C647.57,109.83,649.81,113.65,653,113.65Zm-5.1-7.57h4.59A2.78,2.78,0,0,0,650,104C648.75,104,648.06,104.77,647.91,106.08Z"/><path class="cls-1" d="M671.18,106.59c-1.6.09-3.46.29-3.46,2.29v4.59l1.19,1.35h-5.28l1.2-1.35v-7.59l-1.2-.8,4.09-1.35v4c.57-2.86,1.53-4,4.32-4Z"/><path class="cls-1" d="M686.62,106.59c-1.6.09-3.46.29-3.46,2.29v4.59l1.19,1.35h-5.28l1.2-1.35v-7.59l-1.2-.8,4.09-1.35v4c.57-2.86,1.53-4,4.32-4Z"/><path class="cls-1" d="M697.09,107.19a2.73,2.73,0,0,1,2.28.84,3.93,3.93,0,0,0-3.13-1.79h-1.66a5.76,5.76,0,0,1,4.9-2.62c2,0,3.86.86,3.86,3v6.81l1.2,1.35h-4.08v-2.7a3.72,3.72,0,0,1-7.32-1.07A3.86,3.86,0,0,1,697.09,107.19Zm1.48,6.39c1.27,0,1.84-1.29,1.84-2.51,0-1.59-1.15-3.66-2.77-3.66-1.18,0-1.84,1.2-1.84,2.46C695.8,111.63,697.09,113.58,698.57,113.58Zm1.89-3.59v-4.42c0-1.13-.36-1.69-1-1.69-1.09,0-1.71,1.22-2,2.38A5.09,5.09,0,0,1,700.46,110Z"/><path class="cls-1" d="M595.06,88.33h0l1.52-.12V29.52A72.07,72.07,0,0,1,610.19,5.85l-2-1.91a73.74,73.74,0,0,0-11.59,18.21v-9.6l1.07-1.2-1.07-.51L584.49,3.71l-1.22.44c-1.51,4.16-10.71,5.83-18.93,5.78H538.72L540,12.76h29v-.09c4.65-.24,7.12-1,9.65-2.23h0v.11h0V42.89H543.06l1.31,2.81h34.24V78.92H537.76l1.31,2.81h39.54V89.6Z"/><path class="cls-1" d="M410.63,25.11V62.73L425,61.46V58.89h11.44v3.83l14.32-1.27V27.65l-14.32-2.54v5.61c-4.05,0-8.41.41-11.44,2.2V27.65Zm25.76,6.44V56.08H425V35.85C427.05,33.19,431.91,32.07,436.39,31.55Z"/><path class="cls-1" d="M630.89,35.36c-.6,1.34-1.22,2.68-1.88,4-2.79,5.57-6,8.53-8.26,12.08L613,52l4.12,13.7c11.47-2.28,35.38-14.39,35.38-14.39l-.12-2.2-23,1.73C641,41.7,653,25.69,653,25.69l-15-6.28c-.91,2.29-2,5.3-3.33,8.57l-9.23.48c7.87-8.13,19.39-23,19.39-23L629.81,0c-2.22,10.59-8.89,24.25-12.07,28.8l-7.19.37,3.54,12.66Z"/><path class="cls-1" d="M656.89,62.92,613.78,73.74,619.72,85a67.33,67.33,0,0,1-39.4,10l-.16,2.84c1.38.08,2.75.12,4.12.12A70,70,0,0,0,621,87.49l0,.06C631.69,82.86,657.23,64,657.23,64Z"/><path class="cls-1" d="M543.6,19.87a75.23,75.23,0,0,1-7.39,31.38c.11-1.13.17-2.3.21-3.48l.05-.05V3.37L520,.83v13c-4,5.87-6.15,12.36-8.39,19.18V16.23l-15.39-2.54V64.18L508,63.24l2.7-.24,1-.09V44.15c1.6-8.94,3.74-17.56,8.39-25.24V49a88.39,88.39,0,0,1-2.75,19.83l-9.1,8.06-4.87,4.32c-1.61,1.47-3.45,3.1-4,5.86-.52,3,2.42,5.39,5.08,5.17a7,7,0,0,0,2.54-.64l.07.07s23.62-9.48,28.46-35.3A76.37,76.37,0,0,0,543.6,19.87ZM508.27,88a7.47,7.47,0,0,1-3.94,2c-5.3-.1-2.86-5.2,0-7.57l12.59-12.3C515.19,76.34,512.49,82.82,508.27,88Z"/><path class="cls-1" d="M479,53.81V15.22l3.13-4L470.83,6,468.3,4.8l0,0-1.45-.67L461,10.87H411.49v.06c-4.81.19-8.15.89-11.24,2.87V5.59L382.33,3.05v.19h0C361.89,54.77,285.38,99.52,229.13,95c-6.45-.53-13.15-1.64-18.44-6.27-4.92-4.3-9-13.37-6.79-21.71,1.56-5.94,5.61-9.73,9.9-13.74,4.78-4.45,9.71-9.06,10.74-16.78a19.15,19.15,0,0,0-5-15.56c-3.76-4.05-9-6.23-13.69-5.72-6.75.75-12.78,5-18.61,9.13-2,1.41-4.07,2.88-6.12,4.16-27.51,17.19-59.07,7-89.58-2.86C60.51,15.6,28.45,5.24,0,23l1.27,2.22c27.51-17.12,59-6.94,89.52,2.91,31,10,63.12,20.4,91.58,2.61,2.11-1.32,4.21-2.8,6.24-4.24,5.58-3.94,11.34-8,17.48-8.69,3.95-.43,8.41,1.45,11.66,4.95a16.51,16.51,0,0,1,4.34,13.41c-.9,6.78-5.29,10.88-9.93,15.21-4.38,4.08-8.9,8.3-10.64,15-2.46,9.38,2.08,19.55,7.58,24.37,5.82,5.09,13,6.31,19.84,6.86,2.81.22,5.66.34,8.55.34,55,0,122.3-41.37,144.84-87.59V28.61h0v63l18-1.53V82.44c2.49-1.35,6.1-3.17,13.37-3.12v0h34.78v0c6.13-.14,9.8-1,12.49-2.66V89.87l18-1.53v-.16h.1V63.06a72.89,72.89,0,0,1,15.59-30.34l-2-1.91A75,75,0,0,0,479,53.81ZM460.93,73.29c-2.32,2.27-6.75,3.24-15.13,3.18v0h-33c-5.06,0-8.84,1.44-12.5,2.93V33.07l0,0V17.33c2.17-2.34,5.74-3.72,15.51-3.63h45.17Z"/><path class="cls-1" d="M687.91,2.4l7.45,11.42,11.22-7.75a23,23,0,0,0-19-5.86l0,0c-2.65.44-4.05,2.1-5.76,4.24C684.34,2.64,685.11,1.5,687.91,2.4Z"/><path class="cls-1" d="M1095.32,72.15c-28.31,11.49-59.37,1.61-89.41-8-30.47-9.7-62-19.73-91.1-7.85-2.16.88-4.32,1.89-6.41,2.86-6,2.82-11.72,5.49-17.94,5.62a16.91,16.91,0,0,1-13.1-6.3A10,10,0,0,1,875.27,50c1.16-5,5.68-7.86,10.47-10.88,4.58-2.89,9.31-5.88,11.4-11,3-7.29-1.16-15.64-6.54-19.78C885.05,4.05,878,2.66,871.21,1.8,814-5.46,735.63,23.77,711.54,61l0,0c-.23.33-.41.68-.61,1l-.15.22h0a15.22,15.22,0,0,0-2,11.2,31,31,0,0,1-13.54-8,118.16,118.16,0,0,0,16.65-16.5l-17.64-4.74A75.33,75.33,0,0,1,687,54.28c-2-3.48-3.31-10-3.85-12.81l25.27-1.29h0l8.94-.48-9.47-9.42-7.59,7.48-17.72.92a104.72,104.72,0,0,1-1.44-14.54L702.75,23l.09,0,8.94-.48-9.47-9.43-7.59,7.49-13.6.75c-.11-8.32.52-15.21.53-18.54L664.59,1l1.07,21-11.54.64,1.37,2.75,10.32-.58.44,8.64c.13,2,.35,4,.61,5.89l-17.32.91L651,43l16.3-.85a72.87,72.87,0,0,0,8.06,23.5,21.34,21.34,0,0,1-2.08,1.84,119.51,119.51,0,0,1-30.53,17l1.23,1s21.65-3.3,37.55-11.66C691.6,85.62,704.1,90.31,710.79,90c8.27-4.36,2.24-14,.94-15.6-1.46-3-1.08-7.08,1.09-10.78h0C735.14,27.16,814.93-2.75,870.91,4.37c6.45.81,13.13,2.11,18.22,6,4.62,3.56,8.2,10.62,5.73,16.69-1.78,4.39-6,7-10.4,9.83-5,3.16-10.19,6.43-11.6,12.48a12.71,12.71,0,0,0,2.57,10.74,19.36,19.36,0,0,0,15.08,7.26c6.72-.14,12.91-3,18.9-5.84,2.06-1,4.19-2,6.3-2.82,28.32-11.55,59.41-1.65,89.48,7.92,20.58,6.55,41.64,13.25,62.12,13.25a75.82,75.82,0,0,0,28.91-5.36ZM681.16,73.47s0,0,.05,0S681.12,73.48,681.16,73.47Z"/></g></g></svg>