<svg id="图层_1" data-name="图层 1" xmlns="http://www.w3.org/2000/svg" viewBox="0 0 365.07 98.29"><path d="M230.23,87.49h0l1.52-.12V28.69A71.93,71.93,0,0,1,245.35,5l-2-1.91a73.58,73.58,0,0,0-11.59,18.21v-9.6l1.06-1.2L231.76,10l-12.1-7.13-1.22.44C217,7.48,207.72,9.17,199.51,9.1H173.9l1.3,2.82h29v-.09a22.47,22.47,0,0,0,9.64-2.23h0v.11h0V42.06H178.24l1.3,2.81h34.24V78.08H173l1.3,2.81h39.49v7.87Z"/><path d="M45.81,24.28V61.89l14.32-1.26V58.06H71.56v3.82l14.32-1.26V26.82L71.56,24.28v5.61c-4,0-8.4.41-11.43,2.2V26.82Zm25.75,6.44V55.25H60.13V35C62.22,32.36,67.08,31.24,71.56,30.72Z"/><path d="M178.77,19a75.48,75.48,0,0,1-7.38,31.38c.1-1.13.17-2.3.2-3.48l0,0V2.54L155.19,0V13c-4,5.87-6.14,12.36-8.39,19.18V15.4l-15.38-2.54V63.34l11.72-.94,2.71-.24,1-.09V43.32c1.61-8.94,3.74-17.56,8.39-25.24V48.17A89,89,0,0,1,152.44,68l-9.09,8.06-4.88,4.32c-1.6,1.47-3.44,3.1-4,5.86-.51,3,2.42,5.39,5.08,5.17a7,7,0,0,0,2.55-.64l.06.07s23.63-9.48,28.47-35.29A76.63,76.63,0,0,0,178.77,19ZM143.44,87.16a7.41,7.41,0,0,1-3.93,2c-5.3-.1-2.87-5.2,0-7.57l12.6-12.3C150.36,75.5,147.66,82,143.44,87.16Z"/><path d="M114.18,53V14.39l3.13-4L106,5.17,103.47,4h0L102,3.33,96.14,10H46.68v.06c-4.81.19-8.15.89-11.25,2.87V4.76L17.52,2.22v.19h0A108.11,108.11,0,0,1,0,31.1l2,1.81A116.75,116.75,0,0,0,17.52,9.46V27.78h0v63l18-1.53V81.6c2.48-1.35,6.09-3.17,13.36-3.12H83.62c6.12-.14,9.79-1,12.49-2.66V89l18-1.53v-.16h.11V62.23a72.8,72.8,0,0,1,15.59-30.34l-2-1.91A74.5,74.5,0,0,0,114.18,53ZM96.11,72.45c-2.32,2.27-6.75,3.24-15.12,3.18H48c-5,0-8.84,1.44-12.49,2.93V32.24h0V16.5c2.09-2.33,5.67-3.72,15.43-3.63H96.11Z"/><path d="M266.05,35.72c-.6,1.34-1.22,2.68-1.88,4-2.79,5.57-5.95,8.53-8.26,12.08l-7.79.59,4.11,13.7c11.47-2.28,35.39-14.39,35.39-14.39l-.12-2.2-23,1.73c11.63-9.16,23.67-25.17,23.67-25.17l-15.05-6.28c-.91,2.29-2,5.3-3.32,8.57l-9.23.48c7.87-8.13,19.39-23,19.39-23L265,.36c-2.22,10.59-8.89,24.25-12.07,28.8l-7.19.37,3.54,12.66Z"/><path d="M292.06,63.25,249,74.07l5.91,11.26a67.35,67.35,0,0,1-39.41,10l-.15,2.84c1.37.08,2.75.12,4.12.12a70,70,0,0,0,36.72-10.52v.06c10.69-4.64,36.23-23.5,36.23-23.5Z"/><path d="M323.06,4l7.45,11.42,11.23-7.75a23.05,23.05,0,0,0-19-5.86h0c-2.65.44-4,2.1-5.76,4.24C319.5,4.22,320.26,3.08,323.06,4Z"/><path d="M346.69,61.33h0c-.23.33-.4.68-.61,1,0,.07-.1.14-.14.22h0a15.24,15.24,0,0,0-2,11.2,31.1,31.1,0,0,1-13.54-8,118,118,0,0,0,16.65-16.5l-17.63-4.74a75.72,75.72,0,0,1-7.22,10.13c-2-3.48-3.31-10-3.85-12.81l25.27-1.29h0l9-.48-9.47-9.42-7.6,7.48L317.83,39A105.9,105.9,0,0,1,316.4,24.5l21.51-1.17H338l9-.48-9.47-9.43-7.6,7.49-13.59.75c-.11-8.32.51-15.21.53-18.54L299.75,1.33l1.08,21L289.28,23l1.37,2.75L301,25.15l.45,8.64c.13,2,.35,4,.6,5.89l-17.32.91,1.44,2.74,16.29-.85A73.2,73.2,0,0,0,310.49,66a19.15,19.15,0,0,1-2.07,1.84,119.66,119.66,0,0,1-30.53,17l1.24,1s21.64-3.3,37.53-11.66C326.76,86,339.25,90.63,346,90.32c8.27-4.35,2.24-14,.94-15.59-1.46-3-1.08-7.08,1.1-10.78h0c4-6.53,9.84-12.85,17.06-18.78h0l-1.94-1.74A82.53,82.53,0,0,0,346.69,61.33ZM316.31,73.8h.05C316.41,73.8,316.28,73.81,316.31,73.8Z"/></svg>