<?xml version="1.0" encoding="utf-8"?>
<!-- Generator: Adobe Illustrator 25.4.1, SVG Export Plug-In . SVG Version: 6.00 Build 0)  -->
<svg version="1.1" id="图层_1" xmlns="http://www.w3.org/2000/svg" xmlns:xlink="http://www.w3.org/1999/xlink" x="0px" y="0px"
	 viewBox="0 0 365.1 98" style="enable-background:new 0 0 365.1 98;" xml:space="preserve">
<style type="text/css">
	.st0{fill:#FFFFFF;}
</style>
<g id="图层_2_00000103239114430081953250000017160155798432691334_">
	<g id="图层_1-2">
		<path class="st0" d="M139.5,90c1.5-0.3,2.9-1,3.9-2c4.2-5.2,6.9-11.7,8.7-17.8l-12.6,12.3C136.6,84.8,134.2,89.9,139.5,90z"/>
		<path class="st0" d="M316.4,73.5C316.4,73.5,316.4,73.5,316.4,73.5C316.3,73.5,316.3,73.5,316.4,73.5z"/>
		<path class="st0" d="M230.2,88.3L230.2,88.3l1.5-0.1V29.5c3-8.7,7.6-16.7,13.6-23.7l-2-1.9c-4.7,5.5-8.6,11.6-11.6,18.2v-9.6
			l1.1-1.2l-1.1-0.5l-12.1-7.1l-1.2,0.4c-1.5,4.2-10.7,5.8-18.9,5.8h-25.6l1.3,2.8h29v-0.1c4.6-0.2,7.1-1,9.6-2.2l0,0v0.1l0,0v32.3
			h-35.6l1.3,2.8h34.2v33.2H173l1.3,2.8h39.5v7.9L230.2,88.3z"/>
		<path class="st0" d="M45.8,25.1v37.6l14.3-1.3v-2.6h11.4v3.8l14.3-1.3V27.6l-14.3-2.5v5.6c-4,0-8.4,0.4-11.4,2.2v-5.3L45.8,25.1z
			 M71.6,31.6v24.5H60.1V35.8C62.2,33.2,67.1,32.1,71.6,31.6z"/>
		<path class="st0" d="M266.1,35.4c-0.6,1.3-1.2,2.7-1.9,4c-2.8,5.6-6,8.5-8.3,12.1l-7.8,0.6l4.1,13.7c11.5-2.3,35.4-14.4,35.4-14.4
			l-0.1-2.2l-23,1.7c11.6-9.2,23.7-25.2,23.7-25.2l-15-6.3c-0.9,2.3-2,5.3-3.3,8.6l-9.2,0.5c7.9-8.1,19.4-23,19.4-23L265,0
			c-2.2,10.6-8.9,24.2-12.1,28.8l-7.2,0.4l3.5,12.7L266.1,35.4z"/>
		<path class="st0" d="M292.1,62.9L249,73.7l5.9,11.3c-11.8,7.3-25.6,10.8-39.4,10l-0.1,2.8c1.4,0.1,2.8,0.1,4.1,0.1
			c13,0,25.7-3.7,36.7-10.5v0.1c10.7-4.6,36.2-23.5,36.2-23.5L292.1,62.9z"/>
		<path class="st0" d="M178.8,19.9c-0.2,10.9-2.7,21.6-7.4,31.4c0.1-1.1,0.2-2.3,0.2-3.5l0.1,0V3.4l-16.4-2.5v13
			c-4,5.9-6.1,12.4-8.4,19.2V16.2l-15.4-2.5v50.5l11.7-0.9l2.7-0.2l0.9-0.1V44.2c1.6-8.9,3.7-17.6,8.4-25.2V49
			c-0.2,6.7-1.1,13.3-2.8,19.8l-9.1,8.1l-4.9,4.3c-1.6,1.5-3.4,3.1-4,5.9c-0.5,3,2.4,5.4,5.1,5.2c0.9-0.1,1.7-0.3,2.6-0.6l0.1,0.1
			c0,0,23.6-9.5,28.5-35.3C176.3,45.1,179.1,32.5,178.8,19.9z M143.4,88c-1.1,1-2.4,1.7-3.9,2c-5.3-0.1-2.9-5.2,0-7.6l12.6-12.3
			C150.4,76.3,147.7,82.8,143.4,88z"/>
		<path class="st0" d="M114.2,53.8V15.2l3.1-4L106,6l-2.5-1.2l0,0L102,4.2l-5.8,6.7H46.7v0.1c-4.8,0.2-8.2,0.9-11.2,2.9V5.6L17.5,3
			v0.2l0,0C13.2,13.7,7.3,23.3,0,31.9l2,1.8c6.1-7.2,11.3-15,15.5-23.5v18.3l0,0v63l18-1.5v-7.6c2.5-1.3,6.1-3.2,13.4-3.1l0,0h34.7
			l0,0c6.1-0.1,9.8-1,12.5-2.7v13.2l18-1.5v-0.2h0.1V63.1c2.7-11.2,8.1-21.6,15.6-30.3l-2-1.9C121.9,37.6,117.3,45.4,114.2,53.8z
			 M96.1,73.3c-2.3,2.3-6.8,3.2-15.1,3.2l0,0H48c-5,0-8.8,1.4-12.5,2.9V33.1l0,0V17.3c2.1-2.3,5.7-3.7,15.4-3.6h45.2V73.3z"/>
		<path class="st0" d="M323.1,2.4l7.5,11.4l11.2-7.8c-5.1-4.7-12.1-6.9-19-5.9l0,0c-2.6,0.4-4,2.1-5.8,4.2
			C319.5,2.6,320.3,1.5,323.1,2.4z"/>
		<path class="st0" d="M346.7,61L346.7,61c-0.2,0.3-0.4,0.7-0.6,1c0,0.1-0.1,0.1-0.1,0.2l0,0c-2.1,3.3-2.8,7.3-2,11.2
			c-5.1-1.5-9.8-4.2-13.5-8c6.1-4.9,11.7-10.5,16.6-16.5l-17.6-4.7c-2.1,3.6-4.5,7-7.2,10.1c-2-3.5-3.3-10-3.9-12.8l25.3-1.3l0,0
			l9-0.5l-9.5-9.4l-7.6,7.5l-17.7,0.9c-0.8-4.8-1.3-9.7-1.4-14.5l21.5-1.2h0.1l9-0.5l-9.5-9.4l-7.6,7.5l-13.6,0.8
			c-0.1-8.3,0.5-15.2,0.5-18.5L299.8,1l1.1,21l-11.5,0.6l1.4,2.8l10.3-0.6l0.5,8.6c0.1,2,0.4,4,0.6,5.9l-17.3,0.9l1.4,2.7l16.3-0.8
			c1.3,8.2,4.1,16.2,8.1,23.5c-0.6,0.7-1.3,1.3-2.1,1.8c-9.3,7.1-19.6,12.9-30.5,17l1.2,1c0,0,21.6-3.3,37.5-11.7
			C326.8,85.6,339.3,90.3,346,90c8.3-4.4,2.2-14,0.9-15.6c-1.5-3-1.1-7.1,1.1-10.8l0,0c4-6.5,9.8-12.8,17.1-18.8l0,0l-1.9-1.7
			C356.8,48.2,351.3,54.3,346.7,61z M316.3,73.5C316.3,73.5,316.3,73.5,316.3,73.5C316.4,73.5,316.3,73.5,316.3,73.5z"/>
	</g>
</g>
</svg>
