<svg id="图层_1" data-name="图层 1" xmlns="http://www.w3.org/2000/svg" viewBox="0 0 1096.22 126.49"><defs><style>.cls-1{fill-rule:evenodd;}</style></defs><path class="cls-1" d="M368.1,41.11C326.1,89,271.52,95.62,256.18,96c-9,.21-30.35,1-43.32-5a21.45,21.45,0,0,1-7.32-5.09c-5.08-5.8-3-13.9.62-19.88,7.44-12.41,20.38-21.82,26.71-35,5.15-10.75.8-18.93-7.4-23.1-3.66-1.87-8.18-2.93-12.81-4C154.62-9.11-89.6,75.39-273.13,112.22c-70.4,11.41-123.79-1.65-140-10.46s-18.38-9.52-24-16.79l-.54-.18V88.4C-432,96-418,103.1-408.12,106.63c53.77,19.24,122.56,9.46,129.93,8.48C-89.7,78.22,141.22-4.76,211.4,5.94c11.08,2.13,25.75,6.4,20.57,21.48l-3.07,6.31c-7.58,12.12-19.74,21.19-26.53,34.85-4.36,8.79-2.23,17.28,4.52,21.83,10.16,6.86,24.39,7.2,36.29,7.43a201.46,201.46,0,0,0,37.32-3c26.34-4.4,61.21-19,90.16-52.93Z"/><path d="M732.21,56.57c39.28-37.81,93.53-40.63,108.27-40.69,14-.07,30.35.34,43.2,6.54a21.38,21.38,0,0,1,7.23,5.22c5,5.9,2.7,14-1,19.87C882.25,59.78,869.18,67,862.61,80c-5.35,10.65-1.14,18.91,7,23.24,3.63,1.93,8.13,3.07,12.74,4.2,57.78,14.13,303.32-54.85,487.5-88.3,70.6-10.1,123.74,3.93,139.82,13s18.2,9.86,23.69,17.23l.54.19.06-3.61c-5.52-7.68-19.45-15.06-29.25-18.77C1451.28,7,1382.32,15.54,1374.93,16.38c-189.14,33.4-421.34,101.13-491.31,89.13-11-2.34-25.63-6.87-20.18-21.85l3.19-6.26c7.8-12,20.09-18.82,27.12-32.35,4.53-8.71,2.56-17.24-4.1-21.91-10-7-24.27-8.19-36.14-9.1a167.9,167.9,0,0,0-37.35,1.35c-24.88,3.68-54.6,10.77-85.81,39.7A82.43,82.43,0,0,0,714,73l0,0c-.23.33-.4.68-.61,1,0,.08-.1.15-.14.22h0a15.23,15.23,0,0,0-2,11.22,31,31,0,0,1-13.57-8.06,118.33,118.33,0,0,0,16.69-16.53l-17.67-4.76a75.67,75.67,0,0,1-7.25,10.15c-2-3.48-3.31-10-3.86-12.83l25.34-1.3h0l9-.48-9.49-9.44-7.61,7.5L685,50.61A105.12,105.12,0,0,1,683.59,36l21.62-1.16h.08l9-.48L704.77,25l-7.62,7.5-13.63.75c-.11-8.34.52-15.25.53-18.58l-17.11-1.82L668,33.89l-11.57.65,1.37,2.75,10.35-.58.44,8.66c.14,2,.35,4,.61,5.91l-17.36.91,1.44,2.75,16.34-.86a73.54,73.54,0,0,0,8.08,23.57,22.76,22.76,0,0,1-2.08,1.84A120,120,0,0,1,645,96.57l1.24,1s21.69-3.3,37.64-11.69c10.12,11.8,22.64,16.5,29.35,16.19,8.29-4.37,2.25-14,1-15.64-1.47-3-1.09-7.1,1.09-10.81h0a71,71,0,0,1,11.94-14.3M683.56,85.48l.05.06C683.55,85.52,683.52,85.5,683.56,85.48Z"/><path d="M438.17,41.46c-4.06,0-8.43.41-11.47,2.21V38.38l-14.36-2.55V73.55l14.36-1.28V69.7h11.47v3.85l14.35-1.28V38.38l-14.35-2.55Zm0,25.42H426.7V46.6c2.1-2.67,7-3.79,11.47-4.31Z"/><path d="M545.65,30.58A75.41,75.41,0,0,1,538.24,62c.11-1.13.17-2.3.21-3.49l0,0V14L522,11.49v13c-4,5.89-6.16,12.39-8.41,19.23V26.93l-15.43-2.55V75l11.76-1,2.71-.24,1-.08V54.92c1.6-9,3.75-17.6,8.41-25.31V59.83a88.42,88.42,0,0,1-2.76,19.87l-9.12,8.08-4.88,4.33c-1.61,1.48-3.46,3.11-4,5.88-.51,3,2.43,5.4,5.1,5.18a7,7,0,0,0,2.55-.64l.07.07s23.68-9.5,28.53-35.39A76.62,76.62,0,0,0,545.65,30.58Zm-35.42,68.3a7.6,7.6,0,0,1-3.94,2c-5.32-.11-2.88-5.22,0-7.59L518.91,81C517.17,87.19,514.46,93.69,510.23,98.88Z"/><path d="M462.77,100.75l18-1.53v-.16h.11V73.88a73.09,73.09,0,0,1,15.63-30.42l-2-1.91a74.82,74.82,0,0,0-13.61,23V25.91l3.14-4-11.34-5.24-2.53-1.22,0,0-1.46-.68-5.86,6.74H417.51c-.78,0-1.55,0-2.32,0h-2v.05c-4.82.2-8.17.9-11.27,2.88V16.26l-18-2.54v.19h0a108.53,108.53,0,0,1-17.55,28.77l2,1.81A116.92,116.92,0,0,0,384,21V39.34h0v63.13l18-1.53V93.31c2.49-1.36,6.11-3.19,13.4-3.13v0h34.87v0c6.14-.14,9.82-1,12.52-2.66ZM447.61,87.32v0h-33.1c-5.07,0-8.87,1.44-12.53,2.94V43.81l0-.05V28c2.17-2.34,5.76-3.73,15.54-3.63v0h45.29V84.13C460.45,86.4,456,87.38,447.61,87.32Z"/><path d="M386.25,107.61v0h-2.42v2.33L380,121.32l-2.29,2.45h5.43l-2.94-2.47,1.09-3.14h5.53l1.57,4.39-1.06,1.22h5.38l-1.08-1.22ZM381.31,118l2.63-7.79,2.78,7.79Z"/><path d="M411,115.45a3.11,3.11,0,0,0-3.08-3.31A5.35,5.35,0,0,0,404.2,114v-1.78l-4.26,1.57,1.25.84v7.74l-1.25,1.41h5.5l-1.24-1.41v-8.09a2.51,2.51,0,0,1,1.82-.9,2,2,0,0,1,1.94,2.1v6.89l-1.24,1.41h5.5L411,122.36Z"/><path d="M425.49,112.1a5.9,5.9,0,1,0,5.89,5.89A5.89,5.89,0,0,0,425.49,112.1ZM427,123.38c-2.06,0-4.83-4.11-4.83-8,0-1.59.6-2.79,1.87-2.79,2.06,0,4.83,4.11,4.83,8C428.84,122.18,428.24,123.38,427,123.38Z"/><path d="M442.94,120.42v-8h2v-.19h-2v-2.82l-4.44,3h1.44v6.93c0,2.85,1.27,4.54,4.18,4.54a2.37,2.37,0,0,0,.88-.17v-.09C443.45,123.7,442.94,122.34,442.94,120.42Z"/><path d="M463.38,115.45a3.1,3.1,0,0,0-3.1-3.31,5.38,5.38,0,0,0-.78.07,2.44,2.44,0,0,0,1-1.82,2.68,2.68,0,0,0-3-2.64c-2.53,0-3.94,2-3.94,4.83v9.78l-1.24,1.41h5.5l-1.25-1.41v-8.21a2.54,2.54,0,0,1,1.83-.92,2.16,2.16,0,0,1,2,2.24v6.89l-1.25,1.41h5.5l-1.25-1.41ZM456.56,114v-2.52c0-1.67.62-3.24,1.92-3.24a2.09,2.09,0,0,1,1.83,2.18,2.29,2.29,0,0,1-1.62,2.08A6.9,6.9,0,0,0,456.56,114Z"/><path d="M478.46,114.85h4.48a5.91,5.91,0,1,0-4.9,9c3.51,0,5.46-2.15,5.46-4.35C483.5,117.05,481.55,115.38,478.46,114.85Zm-1.65-2.34a2.89,2.89,0,0,1,2.62,2.15h-4.79C474.8,113.3,475.52,112.51,476.81,112.51Zm3.15,10c-3.33,0-5.67-4-5.34-7.7h2.1c3.35,0,6.5,1.69,6.5,4.32A3.33,3.33,0,0,1,480,122.55Z"/><path d="M495.29,116.37v-4.16L491,113.62l1.25.84v7.9L491,123.77h5.5l-1.24-1.41v-4.78c0-2.08,1.94-2.29,3.6-2.38l.9-3C496.88,112.17,495.89,113.39,495.29,116.37Z"/><path d="M525,114.85h4.48a5.91,5.91,0,1,0-4.9,9c3.52,0,5.46-2.15,5.46-4.35C530.06,117.05,528.12,115.38,525,114.85Zm-1.64-2.34a2.89,2.89,0,0,1,2.61,2.15H521.2C521.36,113.3,522.08,112.51,523.38,112.51Zm3.14,10c-3.33,0-5.66-4-5.34-7.7h2.1c3.36,0,6.5,1.69,6.5,4.32A3.32,3.32,0,0,1,526.52,122.55Z"/><path d="M548.62,115.45a3.11,3.11,0,0,0-3.07-3.31,5.37,5.37,0,0,0-3.7,1.85v-1.78l-4.26,1.57,1.25.84v7.74l-1.25,1.41h5.51l-1.25-1.41v-8.09a2.51,2.51,0,0,1,1.82-.9,2.05,2.05,0,0,1,2,2.1v6.89l-1.25,1.41h5.5l-1.25-1.41Z"/><path d="M568.25,107.82,564,109.23l1.25.83v3.54a4.15,4.15,0,0,0-3.29-1.5c-2.59,0-4.69,2.66-4.69,5.89s2.1,5.9,4.69,5.9a4.21,4.21,0,0,0,3.29-1.5v1.38h4.25l-1.25-1.41Zm-3,14.22a2.91,2.91,0,0,1-2.09,1.32c-1.78,0-2.86-2.94-2.86-5.37s1.08-5.36,2.86-5.36a2.91,2.91,0,0,1,2.09,1.32Z"/><path d="M596.58,112.1a5.9,5.9,0,1,0,5.9,5.89A5.88,5.88,0,0,0,596.58,112.1Zm1.48,11.28c-2.06,0-4.83-4.11-4.83-8,0-1.59.6-2.79,1.87-2.79,2.06,0,4.83,4.11,4.83,8C599.93,122.18,599.33,123.38,598.06,123.38Z"/><path d="M615,108.21c.58,0,1,.51,1.67,1.94l2.59-2a8.58,8.58,0,0,0-2.73-.42c-3.19,0-5.44,1.46-5.53,4.44H610v.19H611v10l-1.25,1.41h5.51L614,122.36v-10h4.57v-.19H614v-1.8C614,109.41,614,108.21,615,108.21Z"/><polygon points="643.23 107.77 647.32 112.4 646.33 107.59 634.69 107.59 633.7 112.4 637.82 107.77 639.02 107.77 639.02 122.36 637.77 123.77 643.27 123.77 642.02 122.36 642.02 107.77 643.23 107.77"/><path d="M658.44,114.85h4.48a5.91,5.91,0,1,0-4.9,9c3.52,0,5.46-2.15,5.46-4.35C663.48,117.05,661.54,115.38,658.44,114.85Zm-1.64-2.34a2.89,2.89,0,0,1,2.61,2.15h-4.79C654.79,113.3,655.5,112.51,656.8,112.51Zm3.14,10c-3.33,0-5.66-4-5.34-7.7h2.1c3.36,0,6.5,1.69,6.5,4.32A3.32,3.32,0,0,1,659.94,122.55Z"/><path d="M675.27,116.37v-4.16L671,113.62l1.24.84v7.9L671,123.77h5.5l-1.25-1.41v-4.78c0-2.08,1.94-2.29,3.61-2.38l.9-3C676.86,112.17,675.87,113.39,675.27,116.37Z"/><path d="M691.36,116.37v-4.16l-4.25,1.41,1.24.84v7.9l-1.24,1.41h5.5l-1.25-1.41v-4.78c0-2.08,1.94-2.29,3.61-2.38l.9-3C693,112.17,692,113.39,691.36,116.37Z"/><path d="M712.4,115.26c0-2.26-1.94-3.16-4-3.16a6,6,0,0,0-5.11,2.73H705a4.08,4.08,0,0,1,3.26,1.87,2.83,2.83,0,0,0-2.38-.88,4,4,0,0,0-4.12,4,3.88,3.88,0,0,0,7.63,1.11v2.82h4.26l-1.25-1.41Zm-5,7.22c-1.55,0-2.89-2-2.89-3.86,0-1.32.69-2.57,1.92-2.57,1.69,0,2.89,2.15,2.89,3.82C709.35,121.14,708.75,122.48,707.43,122.48Zm2-3.75a5.26,5.26,0,0,0-3.14-3.88c.28-1.2.92-2.48,2.06-2.48.71,0,1.08.58,1.08,1.76Z"/><path d="M597.25,99.21h0l1.52-.12V40.25A72.22,72.22,0,0,1,612.4,16.52l-2-1.92a73.85,73.85,0,0,0-11.62,18.26V23.24L599.83,22l-1.06-.51-12.12-7.14-1.22.43c-1.52,4.18-10.75,5.86-19,5.8H540.76l1.31,2.82h25.17l.53,0h3.33v-.08c4.66-.24,7.13-1,9.67-2.24v.12h0v32.4H545.11l1.31,2.82h34.33v33.3h-41l1.31,2.83h39.64v7.89Z"/><path d="M633.16,47.28c-.6,1.34-1.22,2.69-1.88,4-2.8,5.59-6,8.55-8.29,12.11l-7.81.59,4.12,13.74c11.5-2.29,35.48-14.43,35.48-14.43l-.12-2.21-23.07,1.74c11.66-9.19,23.73-25.24,23.73-25.24l-15.09-6.29c-.91,2.3-2,5.31-3.33,8.59l-9.25.48c7.89-8.15,19.44-23.1,19.44-23.1l-15-5.43C629.85,22.44,623.17,36.14,620,40.7l-7.2.38,3.55,12.69Z"/><path d="M659.23,74.91,616,85.75l6,11.33a67.53,67.53,0,0,1-39.51,10l-.15,2.84c1.38.09,2.75.13,4.13.13a70.16,70.16,0,0,0,36.82-10.55l0,.06C634,94.9,659.57,76,659.57,76Z"/><path d="M690.32,15.41l7.47,11.45L709,19.09A23.1,23.1,0,0,0,690,13.21l0,0c-2.65.44-4.05,2.09-5.77,4.24C686.75,15.65,687.52,14.5,690.32,15.41Z"/></svg>