<svg xmlns="http://www.w3.org/2000/svg" viewBox="0 0 1869.68 603.1"><defs><style>.cls-1{fill:#4d4d4d;}</style></defs><g id="图层_2" data-name="图层 2"><g id="图层_2-2" data-name="图层 2"><polygon class="cls-1" points="161.03 154.06 305.81 154.06 305.81 240.52 371.61 240.52 371.61 154.06 483.87 154.06 516.39 92.13 53.27 93.53 339.1 603.1 681.29 0 0 0 34.21 60.53 569.03 61.16 371.61 411.87 370.84 278.71 305.81 279.23 305.81 412.39 161.03 154.06"/><polygon class="cls-1" points="1042.84 0 1100.13 0 1200.26 176 1145.03 176 1042.84 0"/><polygon class="cls-1" points="753.81 0 1003.61 0 1104.26 176 1048 176 971.61 43.35 729.03 42.84 753.81 0"/><polygon class="cls-1" points="824.52 165.16 748.13 301.55 821.93 432 768.26 432 692.39 301.55 771.36 165.16 824.52 165.16"/><polygon class="cls-1" points="975.74 124.39 740.39 124.39 640.77 301.55 741.42 476.9 975.74 476.9 950.45 526.97 711.48 526.97 581.42 301.55 708.9 77.94 951.48 77.94 975.74 124.39"/><polygon class="cls-1" points="725.42 554.32 975.74 554.32 1050.07 423.23 1106.32 423.23 1003.61 603.1 753.81 603.1 725.42 554.32"/><polygon class="cls-1" points="1145.55 423.23 1203.36 423.23 1100.64 603.1 1043.36 603.1 1145.55 423.23"/><polygon class="cls-1" points="1633.55 436.64 1579.36 530.32 1746.58 530.32 1590.97 261.68 1395.87 603.1 1174.45 603.1 1519.74 0 1562.32 71.23 1297.05 529.79 1354.22 530.94 1591.74 121.55 1869.68 603.1 1453.93 603.1 1594.07 364.64 1633.55 436.64"/></g></g></svg>